HIERARCHY
ROOT Hips
{
	OFFSET 51.777000 -27.993614 86.788589
	CHANNELS 6 Xposition Yposition Zposition Xrotation Yrotation Zrotation
	JOINT spine
	{
		OFFSET 0.000000 -0.393702 6.846367
		CHANNELS 3 Xrotation Yrotation Zrotation
		JOINT spine1
		{
			OFFSET 0.000000 -0.000002 9.496208
			CHANNELS 3 Xrotation Yrotation Zrotation
			JOINT spine2
			{
				OFFSET 0.000000 -0.000002 9.099091
				CHANNELS 3 Xrotation Yrotation Zrotation
				JOINT Neck
				{
					OFFSET 0.000000 -1.113783 23.361206
					CHANNELS 3 Xrotation Yrotation Zrotation
					JOINT Head
					{
						OFFSET 0.000000 0.000000 7.058014
						CHANNELS 3 Xrotation Yrotation Zrotation
						End Site
						{
							OFFSET 0.000000 5.634186 17.084396
						}
					}
				}
				JOINT RightShoulder
				{
					OFFSET -3.831360 0.533491 9.826309
					CHANNELS 3 Xrotation Yrotation Zrotation
					JOINT RightArm
					{
						OFFSET 0.000000 -0.000004 12.888107
						CHANNELS 3 Xrotation Yrotation Zrotation
						JOINT RightArmRoll
						{
							OFFSET 0.000000 0.000000 6.506165
							CHANNELS 3 Xrotation Yrotation Zrotation
							JOINT RightForeArm
							{
								OFFSET 0.000000 -0.000004 18.950104
								CHANNELS 3 Xrotation Yrotation Zrotation
								JOINT RightForeArmRoll
								{
									OFFSET 0.000000 0.000000 7.300919
									CHANNELS 3 Xrotation Yrotation Zrotation
									JOINT RightHand
									{
										OFFSET 0.000000 -0.000004 14.651398
										CHANNELS 3 Xrotation Yrotation Zrotation
										End Site
										{
											OFFSET 0.000000 0.000000 0.100006
										}
									}
								}
							}
						}
					}
				}
				JOINT LeftShoulder
				{
					OFFSET 3.831360 0.533491 9.826309
					CHANNELS 3 Xrotation Yrotation Zrotation
					JOINT LeftArm
					{
						OFFSET 0.000000 -0.000004 12.888107
						CHANNELS 3 Xrotation Yrotation Zrotation
						JOINT LeftArmRoll
						{
							OFFSET 0.000000 0.000000 6.506165
							CHANNELS 3 Xrotation Yrotation Zrotation
							JOINT LeftForeArm
							{
								OFFSET 0.000000 -0.000004 18.950104
								CHANNELS 3 Xrotation Yrotation Zrotation
								JOINT LeftForeArmRoll
								{
									OFFSET 0.000000 0.000000 7.300919
									CHANNELS 3 Xrotation Yrotation Zrotation
									JOINT LeftHand
									{
										OFFSET 0.000000 -0.000004 14.651398
										CHANNELS 3 Xrotation Yrotation Zrotation
										End Site
										{
											OFFSET 0.000000 0.000000 0.100006
										}
									}
								}
							}
						}
					}
				}
			}
		}
	}
	JOINT RightUpLeg
	{
		OFFSET -6.068371 0.933477 -1.112778
		CHANNELS 3 Xrotation Yrotation Zrotation
		JOINT RightUpLegRoll
		{
			OFFSET 0.000000 -0.000004 17.179604
			CHANNELS 3 Xrotation Yrotation Zrotation
			JOINT RightLeg
			{
				OFFSET 0.000000 0.000004 -21.274300
				CHANNELS 3 Xrotation Yrotation Zrotation
				JOINT RightLegRoll
				{
					OFFSET 0.000000 -0.000004 21.343903
					CHANNELS 3 Xrotation Yrotation Zrotation
					JOINT RightFoot
					{
						OFFSET 0.000000 -0.000002 17.765198
						CHANNELS 3 Xrotation Yrotation Zrotation
						JOINT RightToeBase
						{
							OFFSET 0.000000 -0.000004 14.850800
							CHANNELS 3 Xrotation Yrotation Zrotation
							End Site
							{
								OFFSET 0.006294 0.829004 7.192123
							}
						}
					}
				}
			}
		}
	}
	JOINT LeftUpLeg
	{
		OFFSET 6.068371 0.933477 -1.112778
		CHANNELS 3 Xrotation Yrotation Zrotation
		JOINT LeftUpLegRoll
		{
			OFFSET 0.000000 -0.000004 17.179703
			CHANNELS 3 Xrotation Yrotation Zrotation
			JOINT LeftLeg
			{
				OFFSET 0.000000 -0.000004 21.274200
				CHANNELS 3 Xrotation Yrotation Zrotation
				JOINT LeftLegRoll
				{
					OFFSET 0.000000 -0.000002 21.541214
					CHANNELS 3 Xrotation Yrotation Zrotation
					JOINT LeftFoot
					{
						OFFSET 0.000000 -0.000004 17.567902
						CHANNELS 3 Xrotation Yrotation Zrotation
						JOINT LeftToeBase
						{
							OFFSET 0.000000 -0.000002 14.850800
							CHANNELS 3 Xrotation Yrotation Zrotation
							End Site
							{
								OFFSET -0.028210 0.829002 7.192123
							}
						}
					}
				}
			}
		}
	}
}
MOTION
Frames: 7
Frame Time: 0.041667
51.932701 5.115364 52.988129 0.827313 -4.538252 -6.433921 -0.016404 0.082231 1.576124 3.968416 0.162310 3.158370 5.612443 0.200273 3.156129 2.103487 15.711728 0.113814 11.523196 -9.486413 -0.803326 -12.775074 -51.214510 -14.745446 119.017426 -31.072330 95.121060 0.000001 -0.000003 -0.000012 17.461787 -25.685411 6.810855 0.000002 -0.000002 -3.000003 -5.000202 -7.999970 0.000043 -23.996563 73.217032 27.871681 103.116158 28.862013 -95.955354 0.000009 0.000001 0.000001 7.106655 33.580891 -3.870284 0.000001 -0.000002 2.999969 -5.000200 8.000688 -0.000090 -86.907996 -172.180695 4.928473 179.999991 -0.000004 -1.518003 100.929705 -2.428228 -3.278649 0.000000 0.000004 2.176791 62.421358 11.811251 -8.363830 25.456950 -7.355613 0.000012 -85.056168 167.378567 -4.952469 -0.000005 -0.000005 -0.466815 -84.713484 0.446595 5.024851 -0.000003 0.000001 -1.482040 64.696672 -6.623476 -2.996468 25.456950 7.355613 -0.000010 
51.931904 5.116703 52.980129 0.829456 -4.533260 -6.433513 -0.017209 0.082206 1.576694 3.966815 0.162206 3.159312 5.610846 0.200168 3.157076 2.108582 15.721074 0.111003 11.522555 -9.497332 -0.805054 -12.774337 -51.212980 -14.744480 119.039993 -31.106614 95.102536 0.000002 -0.000003 -0.000012 17.481208 -25.702748 6.825344 0.000002 0.000002 -2.999999 -5.000206 -7.999967 0.000045 -24.001584 73.218897 27.877134 103.117920 28.862819 -95.955313 0.000011 0.000002 -0.000000 7.047699 33.600709 -3.859497 -0.000001 -0.000002 2.999972 -5.000201 8.000686 -0.000089 -86.908966 -172.181938 4.931162 179.999991 -0.000005 -1.518003 100.923230 -2.427405 -3.278879 -0.000000 0.000003 2.176793 62.429753 11.809739 -8.361326 25.456950 -7.355615 0.000011 -85.059283 167.376723 -4.948407 -0.000005 -0.000004 -0.466831 -84.713661 0.445114 5.022817 -0.000003 0.000001 -1.482040 64.697300 -6.623503 -2.997236 25.456950 7.355614 -0.000010 
51.930702 5.117592 52.983032 0.831552 -4.528208 -6.433041 -0.018031 0.082170 1.577266 3.965186 0.162049 3.160267 5.609213 0.200011 3.158037 2.113687 15.730419 0.108146 11.522006 -9.508091 -0.806807 -12.774008 -51.211707 -14.744048 119.062123 -31.141452 95.085358 -0.000000 -0.000006 -0.000009 17.501721 -25.719067 6.839644 0.000000 -0.000000 -3.000001 -5.000200 -7.999968 0.000041 -24.006322 73.220810 27.882268 103.119355 28.864209 -95.954657 0.000008 0.000002 -0.000001 6.986993 33.620807 -3.848262 -0.000002 -0.000004 2.999971 -5.000203 8.000687 -0.000087 -86.909724 -172.183045 4.934780 179.999991 -0.000003 -1.518005 100.916571 -2.426933 -3.280065 0.000000 0.000004 2.176793 62.438413 11.808335 -8.359022 25.456952 -7.355615 0.000011 -85.062404 167.374851 -4.943942 -0.000005 -0.000004 -0.466854 -84.713935 0.443612 5.020729 -0.000003 0.000001 -1.482040 64.698024 -6.623509 -2.997994 25.456952 7.355614 -0.000010 
51.931705 5.116749 52.988235 0.833614 -4.523116 -6.432501 -0.018864 0.082124 1.577827 3.963526 0.161860 3.161236 5.607555 0.199819 3.159012 2.118787 15.739565 0.105267 11.521359 -9.518749 -0.808608 -12.773974 -51.210607 -14.743988 119.083815 -31.176856 95.068925 -0.000000 -0.000003 -0.000011 17.522908 -25.734621 6.853758 -0.000002 -0.000001 -3.000000 -5.000203 -7.999967 0.000043 -24.010719 73.222640 27.887049 103.121465 28.865646 -95.955579 0.000007 0.000002 0.000000 6.925069 33.641345 -3.836742 -0.000005 -0.000004 2.999970 -5.000202 8.000689 -0.000089 -86.910407 -172.183946 4.938215 179.999991 -0.000004 -1.518005 100.909850 -2.426258 -3.281270 -0.000000 0.000004 2.176792 62.447313 11.807000 -8.357026 25.456947 -7.355610 0.000012 -85.065341 167.373198 -4.940292 -0.000005 -0.000004 -0.466883 -84.714112 0.442109 5.018609 -0.000003 0.000001 -1.482040 64.698864 -6.623534 -2.998748 25.456952 7.355612 -0.000010 
51.932800 5.116142 52.983032 0.835658 -4.518014 -6.431943 -0.019705 0.082075 1.578388 3.961856 0.161649 3.162215 5.605884 0.199603 3.159998 2.123903 15.748610 0.102368 11.520707 -9.529342 -0.810414 -12.774108 -51.209582 -14.744121 119.105481 -31.212264 95.053496 0.000000 -0.000005 -0.000013 17.544613 -25.749811 6.867856 -0.000000 0.000003 -2.999996 -5.000201 -7.999968 0.000044 -24.014855 73.224395 27.891528 103.123685 28.867258 -95.956658 0.000007 0.000001 0.000001 6.862430 33.661894 -3.824998 -0.000002 -0.000005 2.999970 -5.000202 8.000690 -0.000086 -86.911090 -172.184875 4.941644 179.999991 -0.000003 -1.518005 100.903197 -2.425786 -3.282456 0.000001 0.000003 2.176802 62.456145 11.805748 -8.355005 25.456952 -7.355617 0.000012 -85.068503 167.371450 -4.935515 -0.000005 -0.000004 -0.466915 -84.714283 0.440606 5.016476 -0.000003 0.000001 -1.482040 64.699616 -6.623624 -2.999423 25.456948 7.355613 -0.000011 
51.930599 5.116638 52.980431 0.837699 -4.512902 -6.431377 -0.020546 0.082022 1.578958 3.960175 0.161432 3.163194 5.604204 0.199386 3.160986 2.129017 15.757757 0.099463 11.519950 -9.539923 -0.812249 -12.774298 -51.208664 -14.744350 119.127173 -31.247685 95.038298 -0.000002 -0.000005 -0.000011 17.566413 -25.764887 6.881929 0.000001 -0.000001 -3.000001 -5.000202 -7.999967 0.000043 -24.018963 73.226158 27.895982 103.125898 28.868877 -95.957731 0.000007 0.000001 0.000001 6.799600 33.682620 -3.813184 -0.000002 -0.000005 2.999972 -5.000203 8.000685 -0.000088 -86.911739 -172.185695 4.945071 179.999991 -0.000004 -1.518005 100.896476 -2.425107 -3.282677 0.000000 0.000004 2.176801 62.465051 11.804461 -8.352999 25.456950 -7.355613 0.000013 -85.071440 167.369769 -4.931668 -0.000005 -0.000004 -0.466948 -84.714461 0.439096 5.014334 -0.000003 0.000001 -1.482040 64.700449 -6.623647 -3.000178 25.456953 7.355614 -0.000010 
51.925003 5.117500 52.985027 0.839746 -4.507800 -6.430821 -0.021387 0.081974 1.579521 3.958506 0.161225 3.164173 5.602534 0.199178 3.161972 2.134121 15.766805 0.096569 11.519297 -9.550527 -0.814063 -12.774401 -51.207649 -14.744447 119.148839 -31.283107 95.022616 -0.000002 -0.000004 -0.000014 17.588015 -25.780085 6.896046 0.000001 0.000001 -3.000003 -5.000200 -7.999969 0.000040 -24.023138 73.227906 27.900515 103.128070 28.870407 -95.958789 0.000009 0.000001 0.000001 6.737078 33.703196 -3.801386 -0.000003 -0.000005 2.999969 -5.000204 8.000686 -0.000087 -86.912388 -172.186514 4.948500 179.999991 -0.000003 -1.518004 100.889715 -2.424615 -3.283865 -0.000001 0.000004 2.176811 62.473978 11.803166 -8.350996 25.456952 -7.355613 0.000011 -85.074603 167.368021 -4.926891 -0.000005 -0.000004 -0.466979 -84.714638 0.437582 5.012193 -0.000003 0.000001 -1.482040 64.701282 -6.623672 -3.001034 25.456953 7.355613 -0.000010 
